<svg width="600" height="149" viewBox="0 0 600 149" fill="none" xmlns="http://www.w3.org/2000/svg">
<g clip-path="url(#clip0_80_14731)">
<path d="M292.295 121.021L306.272 33.5108H325.609L324.471 40.9947C326.582 37.5808 330.97 32.699 337.148 32.699H337.798C343.647 32.699 346.408 36.7635 347.064 40.9947C349.991 36.9303 354.541 32.699 360.713 32.699H361.363C368.84 32.699 371.279 39.5324 370.301 45.7097L358.274 121.021H338.609L349.825 50.7527C350.152 48.6399 349.664 47.8226 348.364 47.8226C346.903 47.8226 346.575 48.9624 346.414 49.9354L335.037 121.021H315.371L326.748 49.9354C326.909 48.9624 326.587 47.8226 325.121 47.8226C323.654 47.8226 323.332 48.9624 323.171 49.9354L311.794 121.021H292.289H292.295Z" fill="black"/>
<path d="M401.345 0L394.845 40.9892C397.284 37.4085 401.833 33.016 407.85 33.016H408.5C414.999 33.016 418.577 38.7095 417.277 46.6827L407.689 106.704C406.55 113.86 402.811 122.156 394.523 122.156H394.2C388.351 122.156 384.612 118.903 381.685 113.048C380.873 115.489 380.223 118.581 379.896 121.016H362.508L381.846 0H401.35H401.345ZM388.345 104.758L397.123 49.7797C397.445 47.8281 396.961 47.0163 395.662 47.0163C394.523 47.0163 393.873 47.5056 393.551 49.4572L384.612 105.253C384.451 106.226 384.284 108.016 386.24 108.016C387.701 108.016 388.029 106.715 388.351 104.764L388.345 104.758Z" fill="black"/>
<path d="M425.231 69.1345C428.97 67.5054 436.931 64.9032 438.72 64.0915C439.858 63.6022 440.181 63.1129 440.347 62.1399L442.625 47.9894C442.953 45.8765 442.464 45.0592 441.164 45.0592H441.003C440.031 45.0592 439.375 45.5485 439.053 47.5001L436.453 63.7634H419.065L421.665 47.5001C422.965 39.3656 426.542 32.2097 440.842 32.2097H442.953C458.068 32.2097 462.779 38.3926 461.318 47.6613L452.38 103.618C452.219 104.597 452.219 105.081 453.191 105.081H454.819L452.219 121.021H435.964C432.875 121.021 431.575 118.258 432.225 113.866C430.276 117.446 425.887 121.833 420.037 121.833H419.715C413.054 121.833 410.127 115.978 411.266 108.823L415.326 83.4462C416.626 75.6398 418.737 71.8979 425.242 69.1345H425.231ZM430.109 105.898C429.948 107.038 430.109 108.178 431.57 108.178C432.22 108.178 433.031 107.85 433.359 105.898L438.07 76.2904C435.47 77.5914 434.331 79.0537 434.009 81.4946L430.109 105.892V105.898Z" fill="black"/>
<path d="M474.962 121.022H455.297L469.274 33.5108H488.778L487.478 41.156C489.106 38.3926 493.495 33.0215 499.017 33.0215H500.155C506.166 33.0215 508.116 37.5753 507.144 43.7581L502.433 73.1989H485.206L488.945 49.7742C489.267 47.8226 488.623 47.4945 487.806 47.4945C486.99 47.4945 486.506 47.6558 486.178 49.6074L474.962 121.016V121.022Z" fill="black"/>
<path d="M514.616 149C500.8 149 496.25 142.495 497.55 134.521L499.339 123.134H518.354L516.893 132.242C516.566 134.193 516.893 135.005 518.193 135.005H518.354C519.327 135.005 519.982 134.844 520.304 132.726L523.232 114.183C521.121 117.435 517.216 121.989 510.883 121.989C503.894 121.989 499.505 115.973 500.967 106.86L510.555 46.8329C511.694 39.677 515.105 32.8436 522.421 32.8436H523.232C529.571 32.8436 532.82 37.2361 535.098 40.4888L536.076 33.4941H555.58L539.814 132.392C538.187 142.8 531.848 148.983 519.338 148.983H514.627L514.616 149ZM524.532 105.731L533.47 49.7741C533.798 47.8225 532.82 47.172 531.682 47.172C530.382 47.172 530.059 48.3118 529.893 49.2849L520.954 105.242C520.632 107.355 521.115 108.172 522.415 108.172C524.043 108.172 524.365 106.71 524.526 105.731H524.532Z" fill="black"/>
<path d="M567.435 122.323C553.458 122.323 546.792 114.349 549.069 100.527L556.708 52.7043C558.985 38.8763 564.996 32.2097 577.995 32.2097H581.084C595.061 32.2097 601.722 39.8549 599.611 53.1936L591.972 100.855C589.695 115.005 583.356 122.328 570.679 122.328H567.429L567.435 122.323ZM571.985 103.941L580.601 50.0966C580.923 47.9838 580.601 46.844 578.973 46.844C577.345 46.844 577.023 47.9838 576.696 49.9354L568.079 103.941C567.752 106.054 568.24 107.193 569.707 107.193C571.174 107.193 571.657 106.054 571.985 103.941Z" fill="black"/>
<path d="M193.667 45.1037C193.667 45.1037 286.206 51.4755 286.206 120.755L0 118.72L16.638 10.7255H16.6435V0.239075H44.6697C43.3865 0.239075 32.1427 0.53376 28.9095 10.8311C161.785 12.4268 284.651 42.407 284.651 42.407L288.101 39.032C290.123 34.4838 289.323 43.9249 286.456 39.8549C281.99 33.5108 275.651 33.0994 274.579 33.0994H302.616L296.05 64.6808C296.05 64.6808 180.857 15.2681 28.3929 12.9773C28.2762 12.9773 28.154 12.9773 28.0373 12.9773H17.5212C17.5212 12.9773 33.9314 12.1989 33.9314 20.3778L25.9263 68.8342C39.5367 64.9366 110.138 57.0301 184.173 55.9348C186.756 55.907 189.351 55.8847 191.962 55.8847V57.525C189.456 57.525 186.973 57.5528 184.506 57.5917C110.788 58.9483 45.4864 74.3777 24.2764 84.3247L19.61 110.93L264.757 112.298C264.757 112.298 281.368 69.1678 193.673 45.1037H193.667Z" fill="black"/>
</g>
<defs>
<clipPath id="clip0_80_14731">
<rect width="600" height="149" fill="white"/>
</clipPath>
</defs>
</svg>
