<svg width="465" height="85" viewBox="0 0 465 85" fill="none" xmlns="http://www.w3.org/2000/svg">
<path d="M233.942 0.874023H213L199.038 28.8041L214.572 28.8073L223.527 10.9173L260.337 84.6641H275.871L233.942 0.874023Z" fill="black"/>
<path d="M226.961 35.7947L45.4601 35.788L38.4793 49.7531H66.4025V70.7006H41.653C26.3499 70.7006 13.8996 58.2268 13.8996 42.7806C13.8996 27.3343 26.3499 14.837 41.653 14.837H73.3571V0.865234L41.653 0.86524C18.6855 0.86524 0 19.6685 0 42.7806C0 65.8926 18.6855 84.6656 41.653 84.6656H80.3642V49.7531H101.307V84.6656H157.153L164.134 70.7006H115.268V49.7531H188.479L171.115 84.6656H186.641L204.096 49.7531H233.942L226.961 35.7947Z" fill="black"/>
<path d="M115.269 14.8351L164.134 14.8386V0.873551L101.3 0.863281L101.301 28.8068H115.269V14.8351Z" fill="black"/>
<path d="M310.737 20.0594H300.117V13.3117H309.889V10.4605H300.117V3.74461H310.607V0.881836H296.795V22.9222H310.737V20.0594Z" fill="black"/>
<path d="M318.021 13.1073C318.021 12.2324 318.186 11.4846 318.521 10.8639C318.853 10.2431 319.309 9.77244 319.886 9.44906C320.463 9.12568 321.127 8.964 321.872 8.964C322.963 8.964 323.821 9.30325 324.444 9.98177C325.068 10.6603 325.379 11.5972 325.379 12.7955V22.9227H328.598V12.4086C328.598 11.0458 328.364 9.90092 327.896 8.97554C327.432 8.05016 326.773 7.35287 325.928 6.88223C325.082 6.41305 324.095 6.17773 322.969 6.17773C321.728 6.17773 320.7 6.44337 319.886 6.97319C319.072 7.50445 318.475 8.20751 318.096 9.08237H317.891V6.39283H314.803V22.9227H318.021V13.1073Z" fill="black"/>
<path d="M343.619 28.7768C344.742 28.3393 345.634 27.6666 346.295 26.76C346.953 25.8519 347.285 24.6941 347.285 23.288V6.39283H344.13V9.07227H343.894C343.7 8.72723 343.426 8.33023 343.071 7.87836C342.716 7.42505 342.222 7.02949 341.593 6.68879C340.961 6.34808 340.132 6.17773 339.108 6.17773C337.78 6.17773 336.593 6.51266 335.545 7.18396C334.498 7.85382 333.675 8.81818 333.077 10.0727C332.477 11.3287 332.177 12.8359 332.177 14.5928C332.177 16.3512 332.48 17.8309 333.086 19.0321C333.692 20.2346 334.518 21.1413 335.563 21.7548C336.605 22.3684 337.78 22.6759 339.084 22.6759C340.098 22.6759 340.917 22.5171 341.55 22.2023C342.182 21.8862 342.678 21.5123 343.039 21.0821C343.403 20.6519 343.68 20.2606 343.873 19.9098H344.078V23.1595C344.078 24.4371 343.68 25.3697 342.883 25.9573C342.087 26.5463 341.079 26.8394 339.861 26.8394C338.972 26.8394 338.244 26.7138 337.682 26.464C337.119 26.2128 336.674 25.9111 336.348 25.5589C336.022 25.208 335.762 24.8818 335.569 24.5801L332.803 25.7205C333.095 26.3803 333.542 26.9924 334.137 27.5554C334.731 28.1185 335.502 28.5732 336.443 28.9168C337.387 29.2618 338.516 29.4336 339.829 29.4336C341.235 29.4336 342.496 29.2142 343.619 28.7768ZM343.611 17.483C343.276 18.2972 342.788 18.9209 342.147 19.3555C341.503 19.79 340.721 20.0065 339.795 20.0065C338.842 20.0065 338.039 19.777 337.39 19.3179C336.741 18.8588 336.253 18.2193 335.924 17.4022C335.592 16.5836 335.427 15.6337 335.427 14.5495C335.427 13.4956 335.592 12.5414 335.918 11.6867C336.244 10.8335 336.729 10.1579 337.376 9.65839C338.019 9.16033 338.828 8.91058 339.795 8.91058C340.736 8.91058 341.524 9.14878 342.162 9.62663C342.8 10.103 343.285 10.7657 343.616 11.6117C343.946 12.4591 344.11 13.4379 344.11 14.5495C344.11 15.6914 343.943 16.6688 343.611 17.483Z" fill="black"/>
<path d="M353.226 3.84158C353.786 3.84158 354.266 3.6539 354.664 3.2771C355.062 2.90031 355.259 2.44989 355.259 1.92584C355.259 1.39457 355.062 0.941265 354.664 0.56447C354.266 0.187675 353.786 0 353.226 0C352.666 0 352.187 0.187675 351.789 0.56447C351.391 0.941265 351.194 1.39457 351.194 1.92584C351.194 2.44989 351.391 2.90031 351.789 3.2771C352.187 3.6539 352.666 3.84158 353.226 3.84158Z" fill="black"/>
<path d="M354.818 6.39258H351.6V22.9225H354.818V6.39258Z" fill="black"/>
<path d="M362.362 13.1073C362.362 12.2324 362.527 11.4846 362.862 10.8639C363.193 10.2431 363.65 9.77244 364.227 9.44906C364.804 9.12568 365.468 8.964 366.213 8.964C367.304 8.964 368.161 9.30325 368.785 9.98177C369.408 10.6603 369.72 11.5972 369.72 12.7955V22.9227H372.939V12.4086C372.939 11.0458 372.705 9.90092 372.237 8.97554C371.773 8.05016 371.114 7.35287 370.269 6.88223C369.423 6.41305 368.436 6.17773 367.31 6.17773C366.069 6.17773 365.041 6.44337 364.227 6.97319C363.413 7.50445 362.815 8.20751 362.437 9.08237H362.232V6.39283H359.144V22.9227H362.362V13.1073Z" fill="black"/>
<path d="M380.158 22.2067C381.33 22.9069 382.733 23.2562 384.361 23.2562C385.565 23.2562 386.639 23.0714 387.583 22.7019C388.527 22.3323 389.312 21.8126 389.938 21.1413C390.567 20.4714 391.003 19.6875 391.246 18.7895L388.2 18.2409C388.007 18.7578 387.727 19.1923 387.363 19.5431C386.997 19.8954 386.561 20.1581 386.061 20.3343C385.559 20.5104 385.002 20.5984 384.393 20.5984C383.452 20.5984 382.632 20.3949 381.928 19.9907C381.226 19.585 380.678 18.9945 380.288 18.2193C379.925 17.5027 379.75 16.6278 379.724 15.6265H391.451V14.486C391.451 12.986 391.249 11.7113 390.847 10.6603C390.446 9.60931 389.898 8.75322 389.202 8.09347C388.506 7.43227 387.721 6.94864 386.847 6.6397C385.969 6.3322 385.065 6.17773 384.133 6.17773C382.6 6.17773 381.261 6.54009 380.115 7.26481C378.972 7.98952 378.083 8.9972 377.448 10.2878C376.813 11.5799 376.495 13.0726 376.495 14.7646C376.495 16.4797 376.813 17.9739 377.448 19.2472C378.083 20.5205 378.986 21.5079 380.158 22.2067ZM380.245 11.219C380.606 10.513 381.122 9.93846 381.795 9.4967C382.465 9.05639 383.253 8.83551 384.156 8.83551C384.988 8.83551 385.715 9.02607 386.336 9.40575C386.953 9.78688 387.438 10.3052 387.782 10.9606C388.125 11.6174 388.298 12.3696 388.298 13.2156H379.736C379.776 12.5075 379.927 11.8371 380.245 11.219Z" fill="black"/>
<path d="M397.954 22.2067C399.126 22.9069 400.529 23.2562 402.157 23.2562C403.361 23.2562 404.435 23.0714 405.379 22.7019C406.322 22.3323 407.108 21.8126 407.734 21.1413C408.363 20.4714 408.799 19.6875 409.042 18.7895L405.996 18.2409C405.803 18.7578 405.523 19.1923 405.159 19.5431C404.793 19.8954 404.357 20.1581 403.857 20.3343C403.355 20.5104 402.798 20.5984 402.189 20.5984C401.248 20.5984 400.428 20.3949 399.724 19.9907C399.022 19.585 398.474 18.9945 398.084 18.2193C397.721 17.5027 397.546 16.6278 397.52 15.6265H409.247V14.486C409.247 12.986 409.045 11.7113 408.643 10.6603C408.242 9.60931 407.694 8.75322 406.998 8.09347C406.302 7.43227 405.517 6.94864 404.642 6.6397C403.765 6.3322 402.861 6.17773 401.929 6.17773C400.396 6.17773 399.057 6.54009 397.911 7.26481C396.768 7.98952 395.879 8.9972 395.244 10.2878C394.609 11.5799 394.291 13.0726 394.291 14.7646C394.291 16.4797 394.609 17.9739 395.244 19.2472C395.879 20.5205 396.782 21.5079 397.954 22.2067ZM398.041 11.219C398.402 10.513 398.918 9.93846 399.591 9.4967C400.261 9.05639 401.049 8.83551 401.952 8.83551C402.783 8.83551 403.511 9.02607 404.132 9.40575C404.749 9.78688 405.234 10.3052 405.578 10.9606C405.921 11.6174 406.094 12.3696 406.094 13.2156H397.532C397.572 12.5075 397.723 11.8371 398.041 11.219Z" fill="black"/>
<path d="M416.048 12.8287C416.048 12.1112 416.218 11.4702 416.564 10.9072C416.908 10.3441 417.376 9.90238 417.967 9.58333C418.559 9.26428 419.235 9.10403 419.997 9.10403C420.326 9.10403 420.655 9.12857 420.984 9.17477C421.316 9.22097 421.544 9.26284 421.674 9.29893V6.22105C421.515 6.19939 421.298 6.18063 421.024 6.16619C420.747 6.15175 420.508 6.14453 420.308 6.14453C419.338 6.14453 418.472 6.4015 417.71 6.914C416.945 7.42795 416.411 8.12957 416.111 9.01886H415.938V6.39284H412.829V22.9227H416.048V12.8287Z" fill="black"/>
<path d="M427.689 6.39258H424.471V22.9225H427.689V6.39258Z" fill="black"/>
<path d="M426.096 3.84158C426.656 3.84158 427.135 3.6539 427.533 3.2771C427.932 2.90031 428.128 2.44989 428.128 1.92584C428.128 1.39457 427.932 0.941265 427.533 0.56447C427.135 0.187675 426.656 0 426.096 0C425.536 0 425.056 0.187675 424.658 0.56447C424.26 0.941265 424.063 1.39457 424.063 1.92584C424.063 2.44989 424.26 2.90031 424.658 3.2771C425.056 3.6539 425.536 3.84158 426.096 3.84158Z" fill="black"/>
<path d="M445.81 22.9227V12.4086C445.81 11.0458 445.576 9.90092 445.108 8.97554C444.644 8.05016 443.985 7.35287 443.14 6.88223C442.294 6.41305 441.307 6.17773 440.181 6.17773C438.94 6.17773 437.912 6.44337 437.098 6.97319C436.284 7.50445 435.686 8.20751 435.308 9.08237H435.103V6.39283H432.015V22.9227H435.233V13.1073C435.233 12.2324 435.398 11.4846 435.733 10.8639C436.065 10.2431 436.521 9.77244 437.098 9.44906C437.675 9.12568 438.339 8.964 439.084 8.964C440.175 8.964 441.032 9.30325 441.656 9.98177C442.279 10.6603 442.591 11.5972 442.591 12.7955V22.9227H445.81Z" fill="black"/>
<path d="M461.342 6.39283V9.07227H461.105C460.912 8.72723 460.638 8.33023 460.283 7.87836C459.928 7.42505 459.434 7.02949 458.805 6.68879C458.173 6.34808 457.344 6.17773 456.319 6.17773C454.992 6.17773 453.805 6.51266 452.757 7.18396C451.71 7.85382 450.887 8.81818 450.289 10.0727C449.689 11.3287 449.389 12.8359 449.389 14.5928C449.389 16.3512 449.692 17.8309 450.298 19.0321C450.904 20.2346 451.73 21.1413 452.775 21.7548C453.817 22.3684 454.992 22.6759 456.296 22.6759C457.31 22.6759 458.129 22.5171 458.761 22.2023C459.394 21.8862 459.89 21.5123 460.251 21.0821C460.615 20.6519 460.892 20.2606 461.085 19.9098H461.29V23.1595C461.29 24.4371 460.892 25.3697 460.095 25.9573C459.298 26.5463 458.291 26.8394 457.073 26.8394C456.184 26.8394 455.456 26.7138 454.893 26.464C454.331 26.2128 453.886 25.9111 453.56 25.5589C453.234 25.208 452.974 24.8818 452.78 24.5801L450.015 25.7205C450.307 26.3803 450.754 26.9924 451.349 27.5554C451.943 28.1185 452.714 28.5732 453.655 28.9168C454.599 29.2618 455.728 29.4336 457.041 29.4336C458.447 29.4336 459.708 29.2142 460.831 28.7768C461.954 28.3393 462.846 27.6666 463.507 26.76C464.165 25.8519 464.497 24.6941 464.497 23.288V6.39283H461.342ZM460.823 17.483C460.488 18.2972 460 18.9209 459.359 19.3555C458.715 19.79 457.933 20.0065 457.006 20.0065C456.054 20.0065 455.251 19.777 454.602 19.3179C453.952 18.8588 453.465 18.2193 453.135 17.4022C452.804 16.5836 452.639 15.6337 452.639 14.5495C452.639 13.4956 452.804 12.5414 453.13 11.6867C453.456 10.8335 453.941 10.1579 454.587 9.65839C455.231 9.16033 456.039 8.91058 457.006 8.91058C457.947 8.91058 458.736 9.14878 459.373 9.62663C460.011 10.103 460.496 10.7657 460.828 11.6117C461.157 12.4591 461.322 13.4379 461.322 14.5495C461.322 15.6914 461.154 16.6688 460.823 17.483Z" fill="black"/>
<path d="M297.622 53.7937H300.838V39.8465H304.4V37.2638H300.838V35.7783C300.838 35.0464 301.005 34.4877 301.337 34.0993C301.672 33.7124 302.229 33.519 303.011 33.519C303.349 33.519 303.635 33.5493 303.872 33.6099C304.108 33.6706 304.302 33.7225 304.452 33.7658L305.205 31.1615C304.983 31.0749 304.642 30.981 304.183 30.8771C303.724 30.7731 303.173 30.7197 302.526 30.7197C301.652 30.7197 300.841 30.8915 300.096 31.2322C299.348 31.5729 298.751 32.0854 298.297 32.7712C297.847 33.4555 297.622 34.3144 297.622 35.3481V37.2638H295.062V39.8465H297.622V53.7937Z" fill="black"/>
<path d="M322.134 45.604C322.134 43.8889 321.817 42.3904 321.179 41.1055C320.541 39.8221 319.643 38.8245 318.489 38.1143C317.334 37.404 315.98 37.0488 314.433 37.0488C312.883 37.0488 311.532 37.404 310.377 38.1143C309.22 38.8245 308.325 39.8221 307.687 41.1055C307.049 42.3904 306.729 43.8889 306.729 45.604C306.729 47.3118 307.049 48.8045 307.687 50.0807C308.325 51.3584 309.22 52.3516 310.377 53.0619C311.532 53.7722 312.883 54.1273 314.433 54.1273C315.98 54.1273 317.334 53.7722 318.489 53.0619C319.643 52.3516 320.541 51.3584 321.179 50.0807C321.817 48.8045 322.134 47.3118 322.134 45.604ZM318.408 48.51C318.087 49.3921 317.6 50.0995 316.938 50.6293C316.28 51.1606 315.446 51.4262 314.442 51.4262C313.431 51.4262 312.594 51.1606 311.93 50.6293C311.266 50.0995 310.776 49.3921 310.458 48.51C310.138 47.628 309.979 46.6549 309.979 45.5938C309.979 44.5385 310.138 43.5684 310.458 42.682C310.776 41.7956 311.266 41.0839 311.93 40.5454C312.594 40.0083 313.431 39.7384 314.442 39.7384C315.446 39.7384 316.28 40.0083 316.938 40.5454C317.6 41.0839 318.087 41.7956 318.408 42.682C318.725 43.5684 318.887 44.5385 318.887 45.5938C318.887 46.6549 318.725 47.628 318.408 48.51Z" fill="black"/>
<path d="M328.584 37.2639H325.475V53.7938H328.693V43.6998C328.693 42.9823 328.863 42.3413 329.21 41.7783C329.553 41.2152 330.021 40.7735 330.613 40.4544C331.205 40.1354 331.88 39.9751 332.642 39.9751C332.971 39.9751 333.3 39.9997 333.629 40.0459C333.961 40.0921 334.189 40.1339 334.319 40.17V37.0921C334.16 37.0705 333.944 37.0517 333.67 37.0373C333.393 37.0228 333.153 37.0156 332.954 37.0156C331.984 37.0156 331.118 37.2726 330.356 37.7851C329.591 38.299 329.057 39.0007 328.757 39.89H328.584V37.2639Z" fill="black"/>
<path d="M355.4 38.1244C354.751 37.7158 354.055 37.4343 353.313 37.2798C352.572 37.1253 351.87 37.0488 351.209 37.0488C350.213 37.0488 349.261 37.1903 348.357 37.4733C347.454 37.7577 346.657 38.2095 345.964 38.8289C345.271 39.4496 344.746 40.2624 344.388 41.2672L347.41 41.9558C347.647 41.374 348.077 40.8456 348.698 40.3678C349.318 39.8914 350.17 39.6532 351.252 39.6532C352.292 39.6532 353.077 39.9116 353.602 40.427C354.13 40.9438 354.393 41.6729 354.393 42.6127V42.6878C354.393 43.0747 354.254 43.3547 353.974 43.5265C353.694 43.6998 353.247 43.8225 352.629 43.899C352.012 43.9741 351.209 44.0693 350.219 44.1834C349.437 44.2772 348.669 44.4129 347.918 44.5919C347.165 44.7724 346.484 45.038 345.872 45.3888C345.263 45.7411 344.778 46.2175 344.42 46.8195C344.062 47.423 343.883 48.191 343.883 49.1236C343.883 50.2063 344.128 51.1216 344.619 51.868C345.11 52.6144 345.779 53.1817 346.625 53.5729C347.471 53.9642 348.418 54.1591 349.466 54.1591C350.378 54.1591 351.16 54.0262 351.812 53.7621C352.465 53.4964 352.999 53.1629 353.414 52.7602C353.83 52.3588 354.142 51.9503 354.35 51.5345H354.48V53.7938H357.623V42.8162C357.623 41.6108 357.412 40.6305 356.997 39.8741C356.581 39.1162 356.05 38.5329 355.4 38.1244ZM354.405 47.8315C354.405 48.484 354.237 49.0962 353.905 49.6664C353.57 50.2366 353.088 50.6986 352.453 51.0494C351.818 51.4017 351.056 51.5764 350.167 51.5764C349.255 51.5764 348.504 51.3743 347.918 50.9686C347.329 50.5629 347.035 49.9624 347.035 49.1669C347.035 48.5923 347.188 48.1318 347.491 47.7839C347.797 47.436 348.207 47.1689 348.718 46.9812C349.232 46.795 349.8 46.6622 350.424 46.5827C350.689 46.5481 351.019 46.5033 351.414 46.4485C351.809 46.3951 352.214 46.3344 352.629 46.2666C353.045 46.1973 353.417 46.115 353.744 46.0183C354.07 45.9216 354.289 45.8162 354.405 45.7007V47.8315Z" fill="black"/>
<path d="M381.43 38.0588C380.386 37.3846 379.193 37.0483 377.86 37.0483C376.835 37.0483 376.009 37.2186 375.386 37.5593C374.76 37.9 374.272 38.2956 373.922 38.7489C373.57 39.2008 373.302 39.5978 373.114 39.9428H372.921V31.7529H369.705V53.7933H372.846V51.2207H373.114C373.308 51.5729 373.585 51.9743 373.943 52.4261C374.301 52.878 374.8 53.2735 375.432 53.6099C376.067 53.9477 376.887 54.1166 377.892 54.1166C379.225 54.1166 380.412 53.7731 381.454 53.0888C382.493 52.403 383.31 51.4242 383.907 50.1509C384.502 48.8776 384.799 47.3473 384.799 45.5601C384.799 43.7743 384.499 42.2454 383.901 40.9765C383.301 39.706 382.478 38.7345 381.43 38.0588ZM381.049 48.5095C380.718 49.3916 380.227 50.0888 379.58 50.6028C378.936 51.1153 378.131 51.3723 377.17 51.3723C376.246 51.3723 375.464 51.1268 374.826 50.6345C374.188 50.1437 373.7 49.4594 373.362 48.5845C373.025 47.7097 372.857 46.6905 372.857 45.5283C372.857 44.3806 373.022 43.3758 373.351 42.5154C373.68 41.6535 374.168 40.9837 374.809 40.5029C375.452 40.0222 376.237 39.7811 377.17 39.7811C378.14 39.7811 378.948 40.0323 379.598 40.5347C380.247 41.0371 380.735 41.7228 381.061 42.5905C381.387 43.4581 381.549 44.4384 381.549 45.5283C381.549 46.6327 381.384 47.6274 381.049 48.5095Z" fill="black"/>
<path d="M400.123 38.9646C399.427 38.3034 398.642 37.8197 397.767 37.5108C396.89 37.2033 395.986 37.0488 395.054 37.0488C393.521 37.0488 392.182 37.4112 391.036 38.1359C389.893 38.8606 389.004 39.8683 388.369 41.1589C387.734 42.451 387.416 43.9437 387.416 45.6357C387.416 47.3508 387.734 48.845 388.369 50.1183C389.004 51.3916 389.907 52.379 391.079 53.0778C392.251 53.7779 393.654 54.1273 395.282 54.1273C396.486 54.1273 397.56 53.9425 398.504 53.573C399.447 53.2034 400.233 52.6837 400.859 52.0124C401.488 51.3425 401.924 50.5586 402.167 49.6606L399.121 49.112C398.928 49.6289 398.648 50.0634 398.284 50.4142C397.918 50.7665 397.482 51.0292 396.982 51.2054C396.48 51.3815 395.923 51.4695 395.314 51.4695C394.373 51.4695 393.553 51.266 392.849 50.8618C392.147 50.4561 391.599 49.8656 391.209 49.0904C390.846 48.3738 390.671 47.4989 390.645 46.4976H402.372V45.3571C402.372 43.8571 402.17 42.5824 401.768 41.5314C401.367 40.4804 400.819 39.6243 400.123 38.9646ZM390.657 44.0867C390.697 43.3786 390.848 42.7082 391.166 42.0901C391.527 41.3841 392.043 40.8096 392.716 40.3678C393.386 39.9275 394.174 39.7066 395.077 39.7066C395.908 39.7066 396.636 39.8972 397.257 40.2769C397.874 40.658 398.359 41.1763 398.703 41.8317C399.046 42.4885 399.219 43.2407 399.219 44.0867H390.657Z" fill="black"/>
<path d="M412.694 51.0925C412.5 51.1286 412.275 51.1459 412.015 51.1459C411.666 51.1459 411.34 51.091 411.042 50.9799C410.745 50.8687 410.503 50.6565 410.315 50.3447C410.13 50.0328 410.038 49.5636 410.038 48.94V39.8464H413.427V37.2637H410.038V33.3037H406.819V37.2637H404.397V39.8464H406.819V49.607C406.819 50.6045 407.044 51.4332 407.498 52.0929C407.948 52.7527 408.54 53.2406 409.273 53.5568C410.003 53.873 410.794 54.0231 411.64 54.0087C412.157 54.0014 412.587 53.961 412.93 53.8845C413.274 53.8094 413.539 53.7358 413.727 53.6651L413.147 51.0059C413.037 51.0275 412.887 51.0564 412.694 51.0925Z" fill="black"/>
<path d="M423.716 51.0925C423.523 51.1286 423.298 51.1459 423.038 51.1459C422.688 51.1459 422.362 51.091 422.065 50.9799C421.768 50.8687 421.525 50.6565 421.337 50.3447C421.153 50.0328 421.06 49.5636 421.06 48.94V39.8464H424.449V37.2637H421.06V33.3037H417.842V37.2637H415.42V39.8464H417.842V49.607C417.842 50.6045 418.067 51.4332 418.52 52.0929C418.97 52.7527 419.562 53.2406 420.295 53.5568C421.026 53.873 421.817 54.0231 422.662 54.0087C423.179 54.0014 423.609 53.961 423.953 53.8845C424.296 53.8094 424.562 53.7358 424.749 53.6651L424.169 51.0059C424.06 51.0275 423.909 51.0564 423.716 51.0925Z" fill="black"/>
<path d="M439.718 38.9646C439.022 38.3034 438.237 37.8197 437.362 37.5108C436.485 37.2033 435.581 37.0488 434.649 37.0488C433.116 37.0488 431.777 37.4112 430.631 38.1359C429.487 38.8606 428.598 39.8683 427.963 41.1589C427.328 42.451 427.011 43.9437 427.011 45.6357C427.011 47.3508 427.328 48.845 427.963 50.1183C428.598 51.3916 429.502 52.379 430.674 53.0778C431.846 53.7779 433.249 54.1273 434.877 54.1273C436.081 54.1273 437.154 53.9425 438.098 53.573C439.042 53.2034 439.827 52.6837 440.454 52.0124C441.083 51.3425 441.519 50.5586 441.761 49.6606L438.716 49.112C438.523 49.6289 438.243 50.0634 437.879 50.4142C437.512 50.7665 437.076 51.0292 436.577 51.2054C436.075 51.3815 435.518 51.4695 434.909 51.4695C433.968 51.4695 433.148 51.266 432.443 50.8618C431.742 50.4561 431.193 49.8656 430.804 49.0904C430.44 48.3738 430.266 47.4989 430.239 46.4976H441.966V45.3571C441.966 43.8571 441.764 42.5824 441.363 41.5314C440.962 40.4804 440.413 39.6243 439.718 38.9646ZM430.252 44.0867C430.291 43.3786 430.443 42.7082 430.76 42.0901C431.121 41.3841 431.638 40.8096 432.311 40.3678C432.98 39.9275 433.768 39.7066 434.672 39.7066C435.503 39.7066 436.231 39.8972 436.851 40.2769C437.469 40.658 437.954 41.1763 438.297 41.8317C438.641 42.4885 438.814 43.2407 438.814 44.0867H430.252Z" fill="black"/>
<path d="M452.785 37.0156C451.815 37.0156 450.949 37.2726 450.187 37.7851C449.422 38.299 448.888 39.0007 448.588 39.89H448.415V37.2639H445.306V53.7938H448.524V43.6998C448.524 42.9823 448.695 42.3413 449.041 41.7783C449.384 41.2152 449.852 40.7735 450.444 40.4544C451.036 40.1354 451.711 39.9751 452.473 39.9751C452.802 39.9751 453.131 39.9997 453.46 40.0459C453.792 40.0921 454.02 40.1339 454.15 40.17V37.0921C453.992 37.0705 453.775 37.0517 453.501 37.0373C453.224 37.0228 452.984 37.0156 452.785 37.0156Z" fill="black"/>
<path d="M311.942 80.2216H311.781L308.554 68.1367H305.228L301.978 80.2765H301.816L298.577 68.1367H295.255L300.116 84.6666H303.386L306.744 72.7319H306.992L310.349 84.6666H313.631L318.483 68.1367H315.158L311.942 80.2216Z" fill="black"/>
<path d="M332.067 68.9873C330.912 68.277 329.558 67.9219 328.011 67.9219C326.461 67.9219 325.11 68.277 323.955 68.9873C322.798 69.6976 321.903 70.6951 321.265 71.9785C320.627 73.2634 320.307 74.7619 320.307 76.477C320.307 78.1848 320.627 79.6776 321.265 80.9538C321.903 82.2314 322.798 83.2246 323.955 83.9349C325.11 84.6452 326.461 85.0003 328.011 85.0003C329.558 85.0003 330.912 84.6452 332.067 83.9349C333.221 83.2246 334.119 82.2314 334.757 80.9538C335.395 79.6776 335.713 78.1848 335.713 76.477C335.713 74.7619 335.395 73.2634 334.757 71.9785C334.119 70.6951 333.221 69.6976 332.067 68.9873ZM331.986 79.3831C331.666 80.2652 331.178 80.9725 330.517 81.5024C329.858 82.0336 329.024 82.2993 328.02 82.2993C327.009 82.2993 326.172 82.0336 325.508 81.5024C324.844 80.9725 324.354 80.2652 324.036 79.3831C323.716 78.501 323.557 77.528 323.557 76.4669C323.557 75.4116 323.716 74.4414 324.036 73.555C324.354 72.6686 324.844 71.9569 325.508 71.4184C326.172 70.8814 327.009 70.6114 328.02 70.6114C329.024 70.6114 329.858 70.8814 330.517 71.4184C331.178 71.9569 331.666 72.6686 331.986 73.555C332.303 74.4414 332.465 75.4116 332.465 76.4669C332.465 77.528 332.303 78.501 331.986 79.3831Z" fill="black"/>
<path d="M346.808 67.8887C345.838 67.8887 344.972 68.1456 344.21 68.6581C343.445 69.1721 342.911 69.8737 342.611 70.763H342.438V68.137H339.329V84.6669H342.548V74.5728C342.548 73.8553 342.718 73.2143 343.064 72.6513C343.408 72.0883 343.876 71.6465 344.467 71.3275C345.059 71.0084 345.735 70.8482 346.497 70.8482C346.826 70.8482 347.155 70.8727 347.484 70.9189C347.816 70.9651 348.044 71.007 348.174 71.0431V67.9652C348.015 67.9435 347.798 67.9248 347.524 67.9103C347.247 67.8959 347.008 67.8887 346.808 67.8887Z" fill="black"/>
<path d="M354.218 62.626H350.999V84.6663H354.218V62.626Z" fill="black"/>
<path d="M369.729 70.8159H369.536C369.342 70.4708 369.071 70.0738 368.724 69.622C368.375 69.1686 367.887 68.7731 367.261 68.4324C366.632 68.0917 365.806 67.9213 364.781 67.9213C363.454 67.9213 362.267 68.2577 361.219 68.9319C360.171 69.6075 359.349 70.5791 358.751 71.8495C358.151 73.1185 357.851 74.6473 357.851 76.4331C357.851 78.2204 358.148 79.7507 358.74 81.024C359.331 82.2973 360.148 83.2761 361.193 83.9618C362.235 84.6461 363.425 84.9897 364.758 84.9897C365.763 84.9897 366.58 84.8208 367.212 84.483C367.844 84.1466 368.341 83.7511 368.701 83.2992C369.065 82.8473 369.342 82.446 369.536 82.0937H369.804V84.6663H372.948V62.626H369.729V70.8159ZM369.284 79.4576C368.95 80.3325 368.462 81.0168 367.821 81.5076C367.177 81.9999 366.395 82.2453 365.468 82.2453C364.516 82.2453 363.713 81.9883 363.064 81.4758C362.414 80.9619 361.926 80.2646 361.597 79.3825C361.265 78.5005 361.101 77.5058 361.101 76.4014C361.101 75.3114 361.265 74.3312 361.592 73.4635C361.918 72.5959 362.403 71.9102 363.049 71.4078C363.693 70.9054 364.501 70.6542 365.468 70.6542C366.409 70.6542 367.197 70.8953 367.835 71.376C368.473 71.8567 368.958 72.5266 369.29 73.3885C369.619 74.2489 369.784 75.2537 369.784 76.4014C369.784 77.5635 369.616 78.5827 369.284 79.4576Z" fill="black"/>
<path d="M379.677 80.5762C379.091 80.5762 378.583 80.7869 378.161 81.2056C377.737 81.6257 377.526 82.1295 377.526 82.7186C377.526 83.3133 377.737 83.8215 378.161 84.2416C378.583 84.6603 379.091 84.8711 379.677 84.8711C380.072 84.8711 380.43 84.7743 380.754 84.5794C381.077 84.386 381.337 84.1261 381.533 83.7999C381.732 83.4736 381.83 83.1127 381.83 82.7186C381.83 82.1295 381.62 81.6257 381.195 81.2056C380.771 80.7869 380.266 80.5762 379.677 80.5762Z" fill="black"/>
</svg>
