<svg width="394" height="120" viewBox="0 0 394 120" fill="none" xmlns="http://www.w3.org/2000/svg">
<g clip-path="url(#clip0_71_12116)">
<path fill-rule="evenodd" clip-rule="evenodd" d="M223.737 98.0227C234.586 87.6784 241.358 73.0067 241.358 56.7338C241.358 25.3998 216.245 0 185.27 0C154.294 0 129.397 25.4017 129.397 56.7338C129.397 88.0659 154.294 113.468 185.27 113.468C189.142 113.468 193.58 112.986 197.23 112.23C193.16 109.674 184.037 99.879 182.493 96.3297C162.846 95.1946 146.456 77.3137 146.456 56.688C146.456 34.8596 163.95 17.3841 185.528 17.3841C207.106 17.3841 224.169 34.8619 224.169 56.688C224.169 70.0437 218.05 81.8524 208.024 89.007C211.545 92.2142 217.262 96.4496 223.737 98.0227ZM17.3091 2.14183H0.18759C-0.234512 1.72125 0.187631 111.287 0.187631 111.287H77.0954V94.8018H17.3091V2.14183ZM111.903 2.14062H94.504V111.287H111.903V2.14062ZM258.715 2.14062H276.114V111.287H258.715V2.14062ZM295.196 2.14062H340.95C363.966 2.14062 394 19.1945 394 55.5775C394 95.6553 366.21 111.287 339.265 111.287H295.196V2.14062ZM312.592 94.6466H338.135C356.813 94.6466 375.746 86.2667 375.746 56.2286C375.746 26.0094 354.089 18.9688 338.135 18.9688H312.592V94.6466ZM176.752 64.5938C176.752 91.9446 199.558 119.986 232.821 119.986V103.066C206.576 103.066 193.734 81.2405 193.734 64.5938H176.752Z" fill="#EF233C"/>
</g>
<defs>
<clipPath id="clip0_71_12116">
<rect width="394" height="120" fill="white"/>
</clipPath>
</defs>
</svg>
