<svg width="561" height="98" viewBox="0 0 561 98" fill="none" xmlns="http://www.w3.org/2000/svg">
<path d="M18.608 83.842C20.027 83.842 20.285 82.681 20.285 81.133V53.14H36.281V81.52C36.281 90.163 31.508 97.903 20.027 97.903H17.447C5.192 97.903 0.161 91.195 0.161 79.972V17.536C0.29 7.474 4.934 0.120994 17.318 0.120994H20.027C31.379 0.120994 36.281 6.313 36.281 15.73V41.143H20.285V16.246C20.285 14.698 20.027 13.795 18.608 13.795C17.318 13.795 16.931 14.569 16.931 16.246V81.133C16.931 82.81 17.318 83.842 18.608 83.842ZM54.8409 13.15V41.143H56.1309C57.4209 41.143 57.9369 40.369 57.9369 38.95V15.343C57.9369 13.795 57.6789 13.15 56.2599 13.15H54.8409ZM54.8409 54.817V97H38.4579V1.024H63.8709C69.5469 1.024 74.0619 4.636 74.0619 12.505V35.08C74.0619 41.53 70.9659 44.239 68.2569 45.4C70.9659 46.561 74.3199 49.399 74.3199 54.301V92.356C74.3199 94.162 74.5779 95.71 75.0939 96.613V97H58.9689C58.3239 96.226 57.9369 94.678 57.9369 93.001V57.01C57.9369 55.72 57.6789 54.817 56.1309 54.817H54.8409ZM76.6288 1.024H104.235V15.73H92.6248V39.079H102.429V54.301H92.6248V82.036H104.622V97H76.6288V1.024ZM125.307 65.653L123.372 29.146L121.437 65.653H125.307ZM126.984 97L126.081 79.714H120.534L119.631 97H105.57L113.568 1.024H134.208L142.851 97H126.984ZM146.208 97V15.73H138.855V1.024H169.686V15.73H162.333V97H146.208ZM188.124 1.024V97H171.741V1.024H188.124ZM198.513 97L188.967 1.024H206.511L209.736 66.427L213.09 1.024H228.957L220.314 97H198.513ZM229.816 1.024H257.422V15.73H245.812V39.079H255.616V54.301H245.812V82.036H257.809V97H229.816V1.024ZM270.003 97V1.024H293.352C300.447 1.024 305.994 4.636 305.994 14.827V82.423C305.994 92.485 300.705 97 293.61 97H270.003ZM285.999 14.182V83.455H287.547C289.095 83.455 289.482 82.423 289.482 80.23V17.149C289.482 15.214 289.095 14.182 287.547 14.182H285.999ZM324.683 1.024V97H308.3V1.024H324.683ZM343.327 13.15V41.143H344.617C345.907 41.143 346.423 40.369 346.423 38.95V15.343C346.423 13.795 346.165 13.15 344.746 13.15H343.327ZM343.327 54.817V97H326.944V1.024H352.357C358.033 1.024 362.548 4.636 362.548 12.505V35.08C362.548 41.53 359.452 44.239 356.743 45.4C359.452 46.561 362.806 49.399 362.806 54.301V92.356C362.806 94.162 363.064 95.71 363.58 96.613V97H347.455C346.81 96.226 346.423 94.678 346.423 93.001V57.01C346.423 55.72 346.165 54.817 344.617 54.817H343.327ZM365.115 1.024H392.721V15.73H381.111V39.079H390.915V54.301H381.111V82.036H393.108V97H365.115V1.024ZM413.419 83.842C414.838 83.842 415.096 82.681 415.096 81.133V53.14H431.092V81.52C431.092 90.163 426.319 97.903 414.838 97.903H412.258C400.003 97.903 394.972 91.195 394.972 79.972V17.536C395.101 7.474 399.745 0.120994 412.129 0.120994H414.838C426.19 0.120994 431.092 6.313 431.092 15.73V41.143H415.096V16.246C415.096 14.698 414.838 13.795 413.419 13.795C412.129 13.795 411.742 14.569 411.742 16.246V81.133C411.742 82.81 412.129 83.842 413.419 83.842ZM439.985 97V15.73H432.632V1.024H463.463V15.73H456.11V97H439.985ZM481.901 1.024V97H465.518V1.024H481.901ZM521.573 19.084V79.327C521.573 91.324 514.865 97.903 504.287 97.903H501.578C490.355 97.903 484.163 91.066 484.163 79.327V19.084C484.163 7.34499 489.452 0.120994 501.578 0.120994H504.158C516.284 0.120994 521.573 7.603 521.573 19.084ZM504.803 80.746V17.278C504.803 15.472 504.287 14.44 502.868 14.44C501.449 14.44 501.062 15.343 501.062 17.278V80.746C501.062 82.423 501.578 83.326 502.868 83.326C504.158 83.326 504.803 82.423 504.803 80.746ZM523.846 1.024H540.358L546.679 53.011L546.55 1.024H560.095V97H545.002L537.391 39.466L537.52 97H523.846V1.024Z" fill="white"/>
</svg>
