<svg width="439" height="129" viewBox="0 0 439 129" fill="none" xmlns="http://www.w3.org/2000/svg">
<path d="M154.983 66.4342H154.804L148.311 99H145.272L138.481 66.4342H138.362V99H133V54H140.685L146.762 83.9013H146.821L152.6 54H161V99H154.983" fill="black"/>
<path d="M175 54H168V99H175V54Z" fill="black"/>
<path d="M181 88.9671V83.0913H186.883V89.0858C186.883 92.2315 188.476 94.1901 192.031 94.1901C195.34 94.1901 196.872 92.0534 196.872 89.0858V86.9492C196.872 83.8629 195.646 82.9133 192.643 80.1831L187.802 75.5536C183.267 71.221 181.123 69.3811 181.123 64.3362V62.6743C181.123 57.0359 184.677 53 191.786 53C199.262 53 202.448 56.5018 202.448 62.9117V67.3038H196.688V62.6743C196.688 59.3506 195.033 57.8668 191.847 57.8668C188.905 57.8668 187.006 59.4693 187.006 62.5556V63.8614C187.006 66.8289 188.721 67.7192 191.479 70.3307L196.504 75.1382C200.855 79.4115 203 81.1327 203 86.2369V88.6704C203 94.6055 199.568 98.9976 191.908 98.9976C184.248 99.1163 181 94.9023 181 88.9671Z" fill="black"/>
<path d="M206 54H226V58.9737H219.097V99H213.021V58.9737H206" fill="black"/>
<path d="M231 54H249V58.9737H237.059V73.6579H245.673V78.5724H237.059V94.0263H249V99H231" fill="black"/>
<path d="M261.065 58.9737V74.3684H264.751C268.081 74.3684 269.568 72.7105 269.568 69.75V63.4737C269.568 60.4539 268.022 58.9145 264.751 58.9145M261.065 77.3882V99H255V54H265.405C272.719 54 275.632 57.5526 275.632 63.7105V69.2763C275.632 74.6053 273.373 77.7434 267.843 78.3947L277 98.9408H270.519L261.065 77.3882Z" fill="black"/>
<path d="M294 88.9097V83.0336H299.6V89.0284C299.6 92.1742 301.058 94.1329 304.5 94.1329C307.708 94.1329 309.108 91.9961 309.108 89.0284V86.8916C309.108 83.8052 307.942 82.8555 305.083 80.1252L300.533 75.5548C296.217 71.2219 294.175 69.3819 294.175 64.3368V62.6748C294.175 57.0361 297.558 53 304.325 53C311.442 53 314.475 56.5019 314.475 62.9123V67.3045H308.992V62.6748C308.992 59.351 307.417 57.8671 304.383 57.8671C301.583 57.8671 299.775 59.4697 299.775 62.5561V63.8619C299.775 66.8297 301.408 67.72 304.033 70.3316L308.817 75.1393C312.958 79.4129 315 81.1342 315 86.2387V88.6723C315 94.6077 311.733 99 304.442 99C297.15 99 294 94.8452 294 88.9097Z" fill="black"/>
<path d="M327.12 58.9802V78.8419H331.02C334.38 78.8419 335.88 77.1818 335.88 74.1581V63.5454C335.88 60.5217 334.32 58.9802 331.02 58.9802M321 54H331.74C339.12 54 342 57.5573 342 63.7233V73.6838C342 79.7312 339.12 83.5257 331.74 83.5257H327.12V99H321V54Z" fill="black"/>
<path d="M347 54H365V58.9737H353.119V73.6579H361.733V78.5724H353.119V94.0263H365V99H347" fill="black"/>
<path d="M377.803 75.1382L370.65 54H376.916L382.118 70.1053L387.438 54H393.172L385.961 75.375L394 99H387.675L381.645 80.5855L375.734 99H370" fill="black"/>
<path d="M96.014 94.0588C89.6372 94.0588 84.2138 92.1176 79.8633 88.3529C77.3602 86.1765 75.1551 83.7647 73.248 81.6471C73.1884 81.5882 73.1288 81.5882 73.0692 81.5294C72.1753 80.4706 71.1621 80.0588 69.9702 80C68.7783 80 67.7651 80.4706 66.8712 81.5294C66.8116 81.5882 66.752 81.5882 66.6924 81.6471C64.7853 83.7647 62.5206 86.1765 60.0771 88.3529C55.7266 92.1765 50.3032 94.0588 43.9264 94.0588C41.4233 94.0588 38.7415 93.7647 36 93.1176V103.765C36 105.412 37.2515 106.294 39.0394 106.765C40.8273 107.294 51.6144 110 70.0298 110C88.3856 110 99.1727 107.294 100.961 106.765C102.748 106.294 104 105.412 104 103.765V93.1176C101.199 93.7647 98.5171 94.0588 96.014 94.0588Z" fill="black"/>
<path d="M82.5597 66.526C79.2798 68.5607 76 71.5254 76 73.2694C76 73.5601 76 73.7926 76 74.0252C76.1215 75.0716 76.4252 75.9435 77.7614 78.2107C77.7614 78.2689 77.8221 78.2689 77.8221 78.2689L77.8829 78.327C80.1302 81.815 83.2278 85.0704 87.0542 88.0933C89.8482 90.2443 93.4317 91 97.6226 91C99.5662 91 101.692 90.7675 104 90.3024V76.6993V62.2242C96.6508 61.4103 89.7267 62.8055 82.5597 66.526Z" fill="black"/>
<path d="M36 90.3017C38.167 90.7672 40.2169 91 42.1497 91C46.2495 91 49.6464 90.2435 52.3406 88.0902C56.0889 85.1222 59.0759 81.8633 61.1844 78.3134L61.243 78.2552C61.243 78.197 61.243 78.197 61.3015 78.197C62.59 75.9273 62.8829 75.0544 63 74.0069C63 73.7741 63 73.5413 63 73.2504C63 71.5045 59.7787 68.5365 56.6746 66.4997C49.7636 62.7752 43.0868 61.3785 36 62.2514V76.7421" fill="black"/>
<path d="M42.6748 57.9803C51.078 57.9803 59.7195 60.3391 66.3944 64.4079L66.9308 64.7027C68.0035 65.3513 69.255 66 70.0298 66C70.8642 66 72.1157 65.3513 73.1288 64.7027L73.6652 64.4079C80.2805 60.3391 88.922 57.9803 97.3848 57.9803C99.9474 57.9803 104 58.2752 104 58.2752V48.1916C104 46.5405 102.689 45.715 100.961 45.1843C99.2323 44.6536 88.326 42 69.9702 42C51.674 42 40.7677 44.6536 39.0394 45.1843C37.3111 45.715 36 46.5405 36 48.1916V58.2752C36 58.2162 40.1122 57.9803 42.6748 57.9803Z" fill="black"/>
<path d="M154.983 66.4934H154.804L148.311 99H145.272L138.481 66.4934H138.362V99H133V54H140.685L146.762 83.9605H146.821L152.6 54H161V99H154.983" fill="black"/>
<path d="M175 54H168V99H175V54Z" fill="black"/>
<path d="M181 89.6903V83.6864H186.867V89.8116C186.867 93.0258 188.456 95.0271 192 95.0271C195.3 95.0271 196.828 92.8439 196.828 89.8116V87.6284C196.828 84.4748 195.606 83.5045 192.672 80.7148L187.844 75.9845C183.322 71.5574 181.183 69.6774 181.183 64.5226V62.8245C181.183 57.0632 184.728 53 191.817 53C199.272 53 202.45 56.5781 202.45 63.1277V67.6155H196.706V62.8852C196.706 59.489 195.056 57.9729 191.878 57.9729C188.944 57.9729 187.05 59.6103 187.05 62.7639V64.0981C187.05 67.1303 188.761 68.04 191.511 70.7084L196.522 75.6206C200.861 79.9871 203 81.7458 203 86.9613V89.4477C203 95.5122 199.578 100 191.939 100C184.239 100 181 95.6942 181 89.6903Z" fill="black"/>
<path d="M206 54H226V58.9737H219.097V99H213.021V58.9737H206" fill="black"/>
<path d="M231 54H249V58.9737H237.059V73.7171H245.673V78.5724H237.059V94.0855H249V99H231" fill="black"/>
<path d="M261.065 58.9737V74.3684H264.751C268.081 74.3684 269.568 72.7105 269.568 69.75V63.4737C269.568 60.4539 268.022 58.9145 264.751 58.9145M261.065 77.3882V99H255V54H265.405C272.719 54 275.632 57.5526 275.632 63.7105V69.2763C275.632 74.6053 273.373 77.7434 267.843 78.3947L277 98.9408H270.519L261.065 77.3882Z" fill="black"/>
<path d="M294 89.6903V83.6864H299.616V89.8116C299.616 93.0258 301.078 95.0271 304.529 95.0271C307.747 95.0271 309.15 92.8439 309.15 89.8116V87.6284C309.15 84.4748 307.98 83.5045 305.114 80.7148L300.493 75.9845C296.164 71.5574 294.117 69.6774 294.117 64.5226V62.8245C294.117 57.0632 297.51 53 304.295 53C311.432 53 314.474 56.5781 314.474 63.1277V67.6155H308.975V62.8852C308.975 59.489 307.396 57.9729 304.354 57.9729C301.546 57.9729 299.733 59.6103 299.733 62.7639V64.0981C299.733 67.1303 301.37 68.04 304.003 70.7084L308.799 75.6206C312.953 79.9871 315 81.7458 315 86.9613V89.4477C315 95.5122 311.724 100 304.412 100C297.1 100 294 95.6942 294 89.6903Z" fill="black"/>
<path d="M327.12 58.9737V78.8092H331.02C334.38 78.8092 335.88 77.1513 335.88 74.1316V63.5329C335.88 60.5132 334.32 58.9737 331.02 58.9737M321 54H331.74C339.12 54 342 57.5526 342 63.7105V73.7171C342 79.7566 339.12 83.546 331.74 83.546H327.12V99H321V54Z" fill="black"/>
<path d="M347 54H365V58.9737H353.119V73.7171H361.733V78.5724H353.119V94.0855H365V99H347" fill="black"/>
<path d="M377.803 75.1382L370.65 54H376.916L382.118 70.1053L387.438 54H393.172L385.961 75.4342L394 99H387.675L381.645 80.5855L375.734 99H370" fill="black"/>
<path d="M96.014 94.499C89.6372 94.499 84.2138 92.4971 79.8633 88.6145C77.3602 86.3699 75.1551 83.8826 73.248 81.6986C73.1884 81.638 73.1288 81.638 73.0692 81.5773C72.1753 80.4853 71.1621 80.0607 69.9702 80C68.7783 80 67.7651 80.4853 66.8712 81.5773C66.8116 81.638 66.752 81.638 66.6924 81.6986C64.7853 83.8826 62.5206 86.3699 60.0771 88.6145C55.7266 92.5577 50.3032 94.499 43.9264 94.499C41.4233 94.499 38.7415 94.1957 36 93.5891V104.569C36 106.268 37.2515 107.178 39.0394 107.663C40.8273 108.209 51.6144 111 70.0298 111C88.3856 111 99.1727 108.209 100.961 107.663C102.748 107.178 104 106.268 104 104.569V93.5891C101.199 94.135 98.5171 94.499 96.014 94.499Z" fill="black"/>
<path d="M82.5597 66.6821C79.2798 68.7869 76 71.8539 76 73.658C76 73.9587 76 74.1993 76 74.4398C76.1215 75.5223 76.4252 76.4244 77.7614 78.7697L77.8221 78.8299L77.8829 78.89C80.1302 82.4983 83.2278 85.866 87.0542 88.9931C89.8482 91.2182 93.4317 92 97.6226 92C99.5662 92 101.692 91.7595 104 91.2784V77.2061V62.2319C96.6508 61.39 89.7267 62.8333 82.5597 66.6821Z" fill="black"/>
<path d="M36 91.279C38.167 91.7597 40.2169 92 42.1497 92C46.2495 92 49.6464 91.1589 52.3406 88.9959C56.0889 85.9317 59.0759 82.5672 61.1844 78.9022L61.243 78.8421C61.243 78.782 61.243 78.782 61.3015 78.7219C62.59 76.4388 62.8829 75.4775 63 74.3961C63 74.1557 63 73.9154 63 73.615C63 71.8125 59.7787 68.7484 56.6746 66.6455C49.7636 62.8003 43.0868 61.3583 36 62.2595V77.2199" fill="black"/>
<path d="M42.6748 58.6462C51.078 58.6462 59.7195 61.1032 66.3944 65.3415L66.9308 65.6487C68.0035 66.3243 69.255 67 70.0298 67C70.8642 67 72.1157 66.3243 73.1288 65.6487L73.6652 65.3415C80.2805 61.1032 88.922 58.6462 97.3848 58.6462C99.9474 58.6462 104 58.9533 104 58.9533V48.4496C104 46.7297 102.689 45.8698 100.961 45.317C99.2323 44.7641 88.326 42 69.9702 42C51.674 42 40.7677 44.7641 39.0394 45.317C37.3111 45.8698 36 46.7297 36 48.4496V58.9533C36 58.8919 40.1122 58.6462 42.6748 58.6462Z" fill="black"/>
</svg>
