<svg width="600" height="91" viewBox="0 0 600 91" fill="none" xmlns="http://www.w3.org/2000/svg">
<path d="M127.212 23.5992V52.1137C127.212 67.1788 137.952 79.3834 153.591 79.3834H155.476V66.416C147.656 66.416 141.344 60.0277 141.344 52.1137V44.8709H155.476V32.6663H141.344V23.5992H127.212Z" fill="black"/>
<path d="M188.906 24.8441C173.266 24.8441 160.642 37.0487 160.642 52.1137C160.642 67.1788 173.266 79.3834 188.906 79.3834C201.342 79.3834 211.894 71.6602 215.662 60.8858H200.023C197.479 64.223 193.428 66.416 188.906 66.416C182.782 66.416 177.694 62.5067 175.622 57.0719H216.698C216.981 55.4509 217.169 53.83 217.169 52.1137C217.169 37.0487 204.545 24.8441 188.906 24.8441ZM175.622 47.1556C177.694 41.7208 182.782 37.8115 188.906 37.8115C194.935 37.8115 200.117 41.7208 202.19 47.1556H175.622Z" fill="black"/>
<path d="M223.536 52.1137V77.8578H237.668V52.1137C237.668 44.1998 243.98 37.8115 251.8 37.8115V24.8441H249.916C234.276 24.8441 223.536 37.0487 223.536 52.1137Z" fill="black"/>
<path d="M256.566 52.1137V77.8578H270.698V52.1137C270.698 44.1998 277.01 37.8115 284.829 37.8115V24.8441H282.945C267.306 24.8441 256.566 37.0487 256.566 52.1137Z" fill="black"/>
<path d="M316.141 24.8441C300.69 24.8441 288.16 37.0487 288.16 52.1137C288.16 67.1788 300.69 79.3834 316.141 79.3834C322.265 79.3834 327.729 76.2369 330.933 71.4695V77.8578H344.122V52.1137C344.122 37.0487 331.592 24.8441 316.141 24.8441ZM316.424 66.416C308.604 66.416 302.292 60.0277 302.292 52.1137C302.292 44.1998 308.604 37.8115 316.424 37.8115C324.243 37.8115 330.556 44.1998 330.556 52.1137C330.556 60.0277 324.243 66.416 316.424 66.416Z" fill="black"/>
<path d="M352.618 52.1137V77.8578H366.75V52.1137C366.75 44.1998 370.236 37.8115 378.056 37.8115C385.875 37.8115 389.361 44.1998 389.361 52.1137V77.8578H403.493V52.1137C403.493 44.1998 406.979 37.8115 414.799 37.8115C422.618 37.8115 426.104 44.1998 426.104 52.1137V77.8578H440.236V52.1137C440.236 37.0487 430.438 24.8441 414.799 24.8441C407.45 24.8441 400.855 28.1813 396.427 33.5208C391.999 28.1813 385.404 24.8441 378.056 24.8441C362.416 24.8441 352.618 37.0487 352.618 52.1137Z" fill="black"/>
<path d="M474.297 24.8441C458.846 24.8441 446.316 37.0487 446.316 52.1137C446.316 67.1788 458.846 79.3834 474.297 79.3834C480.421 79.3834 485.885 76.2369 489.088 71.4695V77.8578H502.278V52.1137C502.278 37.0487 489.748 24.8441 474.297 24.8441ZM474.579 66.416C466.76 66.416 460.448 60.0277 460.448 52.1137C460.448 44.1998 466.76 37.8115 474.579 37.8115C482.399 37.8115 488.711 44.1998 488.711 52.1137C488.711 60.0277 482.399 66.416 474.579 66.416Z" fill="black"/>
<path d="M571.736 24.8441C556.097 24.8441 543.472 37.0487 543.472 52.1137C543.472 67.1788 556.097 79.3834 571.736 79.3834C584.172 79.3834 594.724 71.6602 598.492 60.8858H582.853C580.309 64.223 576.258 66.416 571.736 66.416C565.612 66.416 560.525 62.5067 558.452 57.0719H599.529C599.811 55.4509 600 53.83 600 52.1137C600 37.0487 587.375 24.8441 571.736 24.8441ZM558.452 47.1556C560.525 41.7208 565.612 37.8115 571.736 37.8115C577.766 37.8115 582.947 41.7208 585.02 47.1556H558.452Z" fill="black"/>
<path d="M509.395 23.5992V52.1137C509.395 67.1788 520.135 79.3834 535.774 79.3834H537.659V66.416C529.839 66.416 523.527 60.0277 523.527 52.1137V44.8709H537.659V32.6663H523.527V23.5992H509.395Z" fill="black"/>
<path fill-rule="evenodd" clip-rule="evenodd" d="M14.0026 7.84882C14.5756 8.24942 14.9176 8.90928 14.9176 9.61408L14.9176 34.301C14.9176 36.2115 12.636 37.1693 11.2998 35.8196L0.6224 25.0348C0.223925 24.6323 0 24.0859 0 23.5162L0 20.3084L0 2.14925C0 0.419486 1.91888 -0.599203 3.32519 0.383985L14.0026 7.84882ZM43.9996 65.2538C43.1757 66.1111 41.8183 66.1212 40.982 65.2764L18.7097 42.7773C18.3113 42.3748 18.0874 41.8285 18.0874 41.2588V14.7539C18.0874 13.0243 20.0061 12.0055 21.4124 12.9886L29.6871 18.7725C30.0413 19.0201 30.4616 19.1527 30.892 19.1527H54.2298C54.6604 19.1527 55.0807 19.02 55.4349 18.7724L63.4896 13.1406C64.8959 12.1574 66.8149 13.1761 66.8149 14.9059V40.6432C66.8149 41.2019 66.5995 41.7386 66.2146 42.1391L43.9996 65.2538ZM84.2048 24.0085C84.5898 23.6079 84.8053 23.0712 84.8053 22.5124V20.5383V2.37828C84.8053 0.64868 82.8867 -0.37004 81.4804 0.61281L70.9081 8.00147C70.3349 8.40205 69.9927 9.06201 69.9927 9.76694V33.5104C69.9927 35.4361 72.3056 36.3868 73.6325 35.0065L84.2048 24.0085ZM0.66641 77.5455C0.241116 77.1401 0 76.575 0 75.9837L0 58.0071C0 56.1046 2.26525 55.1433 3.60611 56.4767L13.4113 66.2275C13.8204 66.6343 14.0492 67.1916 14.0454 67.7721L13.9308 85.2358C13.9185 87.1097 11.7049 88.0682 10.357 86.7833L0.66641 77.5455ZM43.152 70.0465C43.071 70.13 42.9733 70.194 42.8663 70.2348C42.759 70.2758 42.6454 70.3018 42.5313 70.3131C42.51 70.3152 42.4887 70.3165 42.4673 70.3169C42.3632 70.317 42.26 70.2963 42.1638 70.256C42.0676 70.2156 41.9803 70.1565 41.9068 70.0819L36.9956 65.1219C35.6594 63.7723 33.3779 64.7301 33.3779 66.6405V81.8882C33.3779 82.4632 33.6059 83.0141 34.0109 83.4174L41.0057 90.3837C41.8408 91.2154 43.1843 91.2039 44.0054 90.3579L50.2867 83.8861C50.6761 83.4849 50.8943 82.9451 50.8943 82.3827V67.2751C50.8943 65.3493 48.5815 64.3986 47.2545 65.779L43.152 70.0465ZM74.3264 59.1852C73.0007 60.5489 70.7076 59.6077 70.6951 57.6947L70.5948 42.4235C70.5911 41.8598 70.8068 41.3173 71.1951 40.9132L81.1629 30.5429C82.4898 29.1624 84.8028 30.1131 84.8028 32.0389V47.5312C84.8028 48.0942 84.5841 48.6346 84.194 49.036L74.3264 59.1852ZM14.2016 42.9956C14.2053 42.4209 13.9811 41.8688 13.5792 41.4628L3.61783 31.4015C2.28163 30.0519 0 31.0097 0 32.9201L0 48.6686C0 49.2442 0.228552 49.7957 0.634296 50.1991L10.4945 60.0025C11.8306 61.3309 14.088 60.3816 14.1004 58.4861L14.2016 42.9956ZM70.7509 67.1178C70.7473 66.5498 70.9662 66.0036 71.3599 65.5988L81.1717 55.5089C82.5023 54.1406 84.8029 55.0941 84.8029 57.0138V76.2132C84.8029 76.8046 84.5617 77.3697 84.1363 77.7751L74.4431 87.0134C73.095 88.2981 70.8815 87.3393 70.8694 85.4655L70.7509 67.1178Z" fill="black"/>
</svg>
