<svg width="369" height="42" viewBox="0 0 369 42" fill="none" xmlns="http://www.w3.org/2000/svg">
<g clip-path="url(#clip0_93_15437)">
<path fill-rule="evenodd" clip-rule="evenodd" d="M180.408 0H182.556C205.466 0 208.374 12.438 208.374 19.6346V21.1344C208.374 28.2467 205.466 40.9545 182.556 40.9545H180.408C157.447 40.9545 154.539 28.2467 154.539 21.1344V19.6008C154.539 12.4379 157.447 0 180.408 0ZM181.473 31.4491C191.956 31.4491 194.391 24.7752 194.391 20.6797V19.9547C194.391 15.9098 192.142 9.4379 181.473 9.4379C170.805 9.4379 168.573 15.9098 168.573 19.9547V20.5785C168.573 24.5728 170.991 31.4491 181.473 31.4491ZM0 14.1226V7.78554V1.43164H52.0597V7.78554H19.2582V14.1226H0ZM253.078 20.9823C257.474 22.0609 260.366 24.4035 260.366 29.3248L260.383 39.5046H246.856V33.0495C246.856 28.7012 245.013 23.8473 239.67 23.8473H226.719V39.5046H213.192V1.43164H245.318C255.665 1.43164 260.23 5.02159 260.23 11.2069V11.7801C260.194 13.8778 259.477 15.9069 258.188 17.5654C256.899 19.2239 255.107 20.4226 253.078 20.9823ZM241.767 17.5103C245.482 17.5103 246.836 15.7452 246.839 13.4908C246.836 11.2869 245.516 9.52157 241.767 9.52157H226.668V17.5103H241.767ZM340.121 22.8367L351.179 1.44922H369V39.522H355.609V15.775L343.182 39.522H336.266L323.89 15.775V39.522H310.685V1.44922H329.266L340.121 22.8367ZM91.9623 17.5109H69.7959V1.44922H56.2695V39.522H69.7959V23.848H91.9623V39.522H105.438V1.44922H91.9623V17.5109ZM137.58 23.848H124.916V29.9996H151.157V39.522H111.575V1.44922H150.768V10.7525H124.916V17.5109H137.58V23.848ZM279.117 23.848H291.781V17.5109H279.117L279.1 10.7525H279.117H304.969V1.44922H265.776V39.522H305.358V29.9996H279.1L279.117 23.848ZM32.7842 14.124H19.2578V39.5059H32.7842V14.124Z" fill="black"/>
</g>
<defs>
<clipPath id="clip0_93_15437">
<rect width="369" height="42" fill="white"/>
</clipPath>
</defs>
</svg>
